# xmcd
#
# Track frame offsets:
#	150
#	13401
#	24159
#	40703
#	67745
#	84239
#	105616
#	128313
#	137805
#	155576
#	170484
#	183872
#	209755
#	227782
#	244907
#
# Disc length: 3553 seconds
#
# Revision: 1
# Processed by: cddbd v1.5.2PL0 Copyright (c) Steve Scherf et al.
# Submitted via: audiograbber 1.83.01
#
DISCID=bc0ddf0f
DTITLE=John Denver - John Denver In Concert - DISC 2
DYEAR=2007
DGENRE=Country
TTITLE0=Love Is The Master
TTITLE1=Mother Nature´s Son
TTITLE2=Farewell Andromeda
TTITLE3=Sweet Surrender
TTITLE4=Grandma´s Feather Bed
TTITLE5=Back Home Again
TTITLE6=Mathew
TTITLE7=Spanish Pipe Dream
TTITLE8=Saturday Night In Toledo
TTITLE9=Dancing With The Mountain
TTITLE10=Eagle And The Hawk
TTITLE11=Flying For Me
TTITLE12=Calypso
TTITLE13=Bet On The Blues
TTITLE14=Boy From The Country
EXTD=
EXTT0=
EXTT1=
EXTT2=
EXTT3=
EXTT4=
EXTT5=
EXTT6=
EXTT7=
EXTT8=
EXTT9=
EXTT10=
EXTT11=
EXTT12=
EXTT13=
EXTT14=
PLAYORDER=
